<svg width="50px" height="39px" viewBox="0 0 70 42" xmlns="http://www.w3.org/2000/svg"><g id="Page-1" fill="none" fill-rule="evenodd"><g id="022---Surgical-Mask" fill-rule="nonzero"><path id="Shape" d="m50 11v2l-4-.01c-5.0672458-.1117737-9.8123858-2.5082349-12.91-6.52-.7581702-.93171595-1.8961695-1.47172451-3.0973825-1.46978394-1.2012131.00194057-2.3374617.5456232-3.0926175 1.47978394-3.0961116 4.0069118-7.8374836 6.3996507-12.9 6.51l-4 .01v-2c.0032948-1.10320187.8967981-1.9967052 2-2h1.51c4.0155488-.04752901 7.7957131-1.90271168 10.29-5.05 1.51724-1.86650111 3.794622-2.95014881 6.2-2.95014881s4.68276 1.0836477 6.2 2.95014881c2.4942869 3.14728832 6.2744512 5.00247099 10.29 5.05h1.51c1.1032019.0032948 1.9967052.89679813 2 2z" fill="#a3c1f6"/><path id="Shape" d="m48 9h-1.51c-4.0155488-.04752901-7.7957131-1.90271168-10.29-5.05-1.8430521-2.2971043-4.8119296-3.37669612-7.7-2.8 1.8482096.34889867 3.5132309 1.34082622 4.7 2.8 2.4942869 3.14728832 6.2744512 5.00247099 10.29 5.05h1.51c1.1032019.0032948 1.9967052.89679813 2 2v1.992l3 .008v-2c-.0032948-1.10320187-.8967981-1.9967052-2-2z" fill="#7fabf9"/><path id="Shape" d="m50 13v9c.0826421 10.6552976-7.8673329 19.6652693-18.45 20.91-1.0298493.120002-2.0701507.120002-3.1 0-10.5826671-1.2447307-18.53264211-10.2547024-18.45-20.91v-9l4-.01c5.0625164-.1103493 9.8038884-2.5030882 12.9-6.51.7551558-.93416074 1.8914044-1.47784337 3.0926175-1.47978394 1.201213-.00194057 2.3392123.53806799 3.0973825 1.46978394 3.0976142 4.0117651 7.8427542 6.4082263 12.91 6.52z" fill="#e7ecfb"/><path id="Shape" d="m46 12.99c-5.0672458-.1117737-9.8123858-2.5082349-12.91-6.52-1.0972593-1.37149019-2.9731708-1.84516808-4.59-1.159.6199361.24483596 1.1671833.64374136 1.59 1.159 3.0976142 4.0117651 7.8427542 6.4082263 12.91 6.52l4 .01v9c.0826421 10.6552976-7.8673329 19.6652693-18.45 20.91h-.05c1.0132819.1173225 2.0367181.1173225 3.05 0 10.5826671-1.2447307 18.5326421-10.2547024 18.45-20.91v-9z" fill="#c9d8fb"/><path id="Shape" d="m31.745 42.933c-.1-.009-.2-.012-.3-.023-10.5806816-1.24708-18.5279289-10.2564019-18.445-20.91v-11c.0032948-1.10320187.8967981-1.9967052 2-2h1.51c4.0155488-.04752901 7.7957131-1.90271168 10.29-5.05 1.1858799-1.46413731 2.8553341-2.45701577 4.708-2.8-2.8891022-.55971264-5.8517251.51648662-7.708 2.8-2.4942869 3.14728832-6.2744512 5.00247099-10.29 5.05h-1.51c-1.1032019.0032948-1.9967052.89679813-2 2v11c-.08264211 10.6552976 7.8673329 19.6652693 18.45 20.91 1.0948145.1175918 2.1986506.1252969 3.295.023z" fill="#fff"/><path id="Shape" d="m20.39 41.407.963-1.753c2.2243224 1.2288585 4.6726821 1.9987316 7.2 2.264l-.208 1.989c-2.7920921-.29334-5.4970497-1.1434209-7.955-2.5z" fill="#fff"/><g fill="#428dff"><path id="Shape" d="m24.561 43.1c-.5522847.0030376-1.0024624-.4422153-1.0055-.9945s.4422153-1.0024624.9945-1.0055h.011c.5522847 0 1 .4477153 1 1s-.4477153 1-1 1z"/><path id="Shape" d="m16.7 24.955c4.3051096 1.3459402 8.789399 2.0313959 13.3 2.033 4.510601-.0016041 8.9948904-.6870598 13.3-2.033.3411886-.1061079.5998521-.3861776.6785543-.7347095.0787022-.348532-.0345136-.712576-.297-.955-.2624865-.2424241-.6343657-.3263984-.9755543-.2202905-8.2706401 2.589997-17.1353599 2.589997-25.406 0-.5274319-.1640286-1.0879714.1305681-1.252.658s.1305681 1.0879714.658 1.252z"/><path id="Shape" d="m16.846 18.988c4.3522763.6730667 8.7499886 1.0093977 13.154 1.006 4.4040114.0033977 8.8017237-.3329333 13.154-1.006.3564205-.0512434.6577686-.2901529.7889596-.6254891.1311911-.3353361.0719643-.7153107-.1550617-.9948114-.2270259-.2795007-.5867898-.4153624-.9418979-.3556995-8.513904 1.3099961-17.178096 1.3099961-25.692 0-.5420955-.0779383-1.0460312.2946761-1.1303782.8358115s.2822787 1.0494446.8223782 1.1401885z"/><path id="Shape" d="m16.569 31.9c8.4754161 4.1401645 18.3865839 4.1401645 26.862 0 .346031-.1387965.5861159-.458566.6228545-.8295811s-.1359703-.7316602-.4480604-.9356251c-.3120902-.2039649-.7117318-.2173764-1.0367941-.0347938-7.9313222 3.8750661-17.2066778 3.8750661-25.138 0-.3250623-.1825826-.7247039-.1691711-1.0367941.0347938-.3120901.2039649-.484799.56461-.4480604.9356251s.2768235.6907846.6228545.8295811z"/><path id="Shape" d="m56 10h-5.184c-.4222546-1.19435087-1.5492146-1.99474861-2.816-2h-1.51c-3.7138066-.04849718-7.2081338-1.7675607-9.513-4.68-1.7075424-2.09945917-4.2698164-3.31824569-6.976-3.31824569s-5.2684576 1.21878652-6.976 3.31824569c-2.3053985 2.91286473-5.8005235 4.63195933-9.515 4.68h-1.51c-1.2667854.00525139-2.39374545.80564913-2.816 2h-5.184c-2.209139 0-4 1.790861-4 4v5c0 5.272 4.736 10.123 10.472 10.888.4272497 1.1662174.9569875 2.2922868 1.583 3.365.9992325 1.696013 2.2132691 3.2559088 3.612 4.641 1.4123214 1.3743945 3.0004654 2.5556669 4.723 3.513.2367536.1346384.5186877.1652383.7788142.084529.2601264-.0807093.4752243-.265523.5941858-.510529.233152-.4813572.0540445-1.0610539-.41-1.327-1.5626433-.8695653-3.0037425-1.9414795-4.286-3.188-1.2717973-1.2606464-2.3761889-2.6796183-3.286-4.222-.8948797-1.5514665-1.5897377-3.2099864-2.068-4.936-.4506349-1.7341488-.6900373-3.5164039-.713-5.308v-8l3-.005c5.3653521-.1045779 10.3941637-2.6353481 13.675-6.882.5665226-.70117915 1.4191517-1.1093426 2.3205936-1.11089513.901442-.00155254 1.7554719.40367156 2.3244064 1.10289513 3.2853404 4.2326296 8.3004685 6.7627777 13.657 6.89h.023l3 .005v8c-.0028228 2.2627913-.3802596 4.5095033-1.117 6.649v.01c-2.419781 7.2518198-8.8411547 12.4303974-16.441 13.259-.9583.1080007-1.9257.1080007-2.884 0-.3585047-.0431361-.7124197.1103505-.9259258.4015574s-.2534379.6748987-.1044709 1.003829c.148967.3289304.4636924.552004.8233967.5836136 1.0965013.1240731 2.2034987.1240731 3.3 0 8.1596383-.8808621 15.111253-6.3185593 17.931-14.026 5.712-.788 10.418-5.625 10.418-10.881v-5c0-2.209139-1.790861-4-4-4zm-47 12c.02527476 1.9312724.27972177 3.8527166.758 5.724-3.978-.951-7.758-4.348-7.758-8.724v-5c0-1.1045695.8954305-2 2-2h5zm37-10.01h-.02c-4.7555737-.1267096-9.202169-2.38488968-12.11-6.15-.9486835-1.16595521-2.3724968-1.84202835-3.8756432-1.84028208-1.5031463.00174627-2.9253849.68112577-3.8713568 1.84928208-2.9056206 3.76164639-7.3485118 6.017607-12.1 6.144h-.023l-3 .007v-1c0-.5522847.4477153-1 1-1h1.51c4.3169159-.04813187 8.3822784-2.03911993 11.067-5.42 1.3273382-1.63324052 3.3199095-2.58149688 5.4245-2.58149688s4.0971618.94825636 5.4245 2.58149688c2.6836928 3.38052747 6.7480036 5.37154019 11.064 5.42h1.51c.5522847 0 1 .4477153 1 1v1zm12 7.01c0 4.372-3.772 7.766-7.745 8.725.491639-1.8687191.7420076-3.7926928.745-5.725v-10h5c1.1045695 0 2 .8954305 2 2z"/></g></g></g></svg>